<?xml version="1.0" encoding="UTF-8" standalone="no"?>
<svg
   version="1.1"
   id="svg2"
   xml:space="preserve"
   width="757.112"
   height="787.58667"
   viewBox="0 0 757.112 787.58667"
   sodipodi:docname="cat_coin.svg"
   inkscape:version="1.1.1 (3bf5ae0d25, 2021-09-20)"
   xmlns:inkscape="http://www.inkscape.org/namespaces/inkscape"
   xmlns:sodipodi="http://sodipodi.sourceforge.net/DTD/sodipodi-0.dtd"
   xmlns="http://www.w3.org/2000/svg"
   xmlns:svg="http://www.w3.org/2000/svg"
   xmlns:rdf="http://www.w3.org/1999/02/22-rdf-syntax-ns#"
   xmlns:cc="http://creativecommons.org/ns#"
   xmlns:dc="http://purl.org/dc/elements/1.1/"><metadata
     id="metadata8"><rdf:RDF><cc:Work
         rdf:about=""><dc:format>image/svg+xml</dc:format><dc:type
           rdf:resource="http://purl.org/dc/dcmitype/StillImage" /></cc:Work></rdf:RDF></metadata><defs
     id="defs6"><radialGradient
       fx="0"
       fy="0"
       cx="0"
       cy="0"
       r="1"
       gradientUnits="userSpaceOnUse"
       gradientTransform="matrix(4800,0,0,-4800,-4716.1051,2714.6067)"
       spreadMethod="pad"
       id="radialGradient18"><stop
         style="stop-opacity:1;stop-color:#62656a"
         offset="0"
         id="stop14" /><stop
         style="stop-opacity:1;stop-color:#52575d"
         offset="1"
         id="stop16" /></radialGradient></defs><sodipodi:namedview
     pagecolor="#ffffff"
     bordercolor="#666666"
     borderopacity="1"
     objecttolerance="10"
     gridtolerance="10"
     guidetolerance="10"
     inkscape:pageopacity="0"
     inkscape:pageshadow="2"
     inkscape:window-width="1920"
     inkscape:window-height="1009"
     id="namedview4"
     inkscape:pagecheckerboard="0"
     showgrid="false"
     width="1279px"
     fit-margin-top="0"
     fit-margin-left="0"
     fit-margin-right="0"
     fit-margin-bottom="0"
     inkscape:zoom="0.64925259"
     inkscape:cx="649.20804"
     inkscape:cy="313.43733"
     inkscape:window-x="-8"
     inkscape:window-y="-8"
     inkscape:window-maximized="1"
     inkscape:current-layer="g12" /><g
     id="g10"
     inkscape:groupmode="layer"
     inkscape:label="ink_ext_XXXXXX"
     transform="matrix(1.3333333,0,0,-1.3333333,-1.8897638,1278.1102)"
     style="display:inline"><g
       id="g12"
       transform="scale(0.1)"><path
         d="m 2853.3435,8745.827 c 1568.03,0 2839.17,-1134.28 2839.17,-2533.46 0,-1399.2 -1271.14,-2533.44 -2839.17,-2533.44 -1568.03,0 -2839.170271,1134.24 -2839.170271,2533.44 0,1399.18 1271.140271,2533.46 2839.170271,2533.46 v 0"
         style="fill:#4a4e54;fill-opacity:0.35;fill-rule:evenodd;stroke:none"
         id="path22" /><path
         d="m 5692.5135,6434.127 c 0,-1399.18 -1271.14,-2533.46 -2839.17,-2533.46 -1568.03,0 -2839.170271,1134.28 -2839.170271,2533.46 v 618.24 H 5692.5135 v -618.24 0"
         style="fill:#c37401;fill-opacity:1;fill-rule:evenodd;stroke:none"
         id="path24" /><path
         d="m 5455.6035,5419.867 c -438.37,-894.26 -1438.44,-1519.2 -2602.26,-1519.2 -1568.03,0 -2839.170271,1134.28 -2839.170271,2533.46 v 618.24 H 119.03321 c -34.539981,-141.93 -55.889981,-288.3 -62.579981,-438.03 140.889981,-721.34 623.729981,-1337.91 1294.000271,-1711.79 25.81,-14.4 51.89,-28.44 78.25,-42.09 v -518.75 c 427.63,-230.28 928.77,-362.8 1464.64,-362.8 1129.59,0 2105.04,588.7 2562.26,1440.96 v 0"
         style="fill:#b06801;fill-opacity:1;fill-rule:evenodd;stroke:none"
         id="path26" /><path
         d="m 2853.3435,9585.827 c 1568.03,0 2839.17,-1134.28 2839.17,-2533.46 0,-1399.2 -1271.14,-2533.46 -2839.17,-2533.46 -1568.03,0 -2839.170271,1134.26 -2839.170271,2533.46 0,1399.18 1271.140271,2533.46 2839.170271,2533.46 v 0"
         style="fill:#fcc120;fill-opacity:1;fill-rule:evenodd;stroke:none"
         id="path28" /><path
         d="m 2853.3437,9585.827 c 1502.66,0 2732.47,-1041.72 2832.41,-2359.94 54.61,-987.48 -4787.62051,-2304.16 -5668.590471,-59.53 66.83,1346.29 1310.970471,2419.47 2836.180471,2419.47 v 0"
         style="fill:#fbd25f;fill-opacity:1;fill-rule:evenodd;stroke:none"
         id="path30" /><path
         d="m 2853.3435,8896.507 c 1141.39,0 2066.67,-825.66 2066.67,-1844.14 0,-1018.47 -925.28,-1844.14 -2066.67,-1844.14 -1141.39,0 -2066.67029,825.67 -2066.67029,1844.14 0,1018.48 925.28029,1844.14 2066.67029,1844.14 v 0"
         style="fill:#db9710;fill-opacity:1;fill-rule:evenodd;stroke:none"
         id="path32" /><path
         d="m 2853.3435,8896.507 c 1141.39,0 2066.67,-825.66 2066.67,-1844.14 0,-18.42 -0.39,-36.74 -0.99,-55 -32.61,993.05 -944.92,1789.12 -2065.68,1789.12 -1120.77,0 -2033.07029,-796.07 -2065.68029,-1789.12 -0.6,18.26 -0.99,36.58 -0.99,55 0,1018.48 925.28029,1844.14 2066.67029,1844.14 v 0"
         style="fill:#c37401;fill-opacity:1;fill-rule:evenodd;stroke:none"
         id="path34" /><path
         d="m 3618.0035,7520.117 c 207.21,-95.89 370.66,-229.78 466.91,-386.15 62.04,150.12 84.2,312.93 63.13,474.42 -183.2,17.4 -366.72,-13.79 -530.04,-88.27 z m -1996.16,-386.17 c 96.25,156.39 259.71,290.28 466.92,386.17 -163.32,74.48 -346.84,105.67 -530.05,88.27 -21.06,-161.49 1.1,-324.3 63.13,-474.44 z m 1798.48,-60.31 c 64.04,0 115.96,-108.69 115.96,-242.77 0,-134.08 -51.92,-242.78 -115.96,-242.78 -64.04,0 -115.96,108.7 -115.96,242.78 0,134.08 51.92,242.77 115.96,242.77 z m -1133.88,0 c 64.04,0 115.95,-108.69 115.95,-242.77 0,-134.08 -51.91,-242.78 -115.95,-242.78 -64.05,0 -115.96,108.7 -115.96,242.78 0,134.08 51.91,242.77 115.96,242.77 z m 1894.63,-265.53 c 0,-480.99 -594.42,-870.89 -1327.69,-870.89 -733.27,0 -1327.69,389.9 -1327.69,870.89 0,69.73 12.57,137.54 36.17,202.52 -108.33,220.26 -149.86,465.1 -118.22,707.64 267.47,25.37 535.45,-26.86 767.98,-147.66 190.23,69.05 408.97,108.38 641.76,108.38 232.78,0 451.53,-39.33 641.76,-108.38 232.53,120.8 500.51,173.03 767.98,147.66 31.64,-242.54 -9.89,-487.38 -118.22,-707.64 23.6,-64.98 36.17,-132.79 36.17,-202.52 v 0"
         style="fill:#c37401;fill-opacity:1;fill-rule:evenodd;stroke:none"
         id="path36" /><path
         d="m 3618.0035,7579.437 c 207.21,-95.92 370.66,-229.76 466.91,-386.17 62.04,150.12 84.2,312.97 63.13,474.41 -183.2,17.41 -366.72,-13.75 -530.04,-88.24 z m -1996.16,-386.17 c 96.25,156.41 259.71,290.25 466.92,386.17 -163.32,74.49 -346.84,105.65 -530.05,88.24 -21.06,-161.46 1.1,-324.29 63.13,-474.41 z m 1798.48,-60.31 c 64.04,0 115.96,-108.69 115.96,-242.78 0,-134.08 -51.92,-242.77 -115.96,-242.77 -64.04,0 -115.96,108.69 -115.96,242.77 0,134.09 51.92,242.78 115.96,242.78 z m -1133.88,0 c 64.04,0 115.95,-108.69 115.95,-242.78 0,-134.08 -51.91,-242.77 -115.95,-242.77 -64.05,0 -115.96,108.69 -115.96,242.77 0,134.09 51.91,242.78 115.96,242.78 z m 1894.63,-265.55 c 0,-480.98 -594.42,-870.88 -1327.69,-870.88 -733.27,0 -1327.69,389.9 -1327.69,870.88 0,69.77 12.57,137.54 36.17,202.54 -108.33,220.25 -149.86,465.08 -118.22,707.62 267.47,25.41 535.45,-26.86 767.98,-147.62 190.23,69.02 408.97,108.36 641.76,108.36 232.78,0 451.53,-39.34 641.76,-108.36 232.53,120.76 500.51,173.03 767.98,147.62 31.64,-242.54 -9.89,-487.37 -118.22,-707.62 23.6,-65 36.17,-132.77 36.17,-202.54 v 0"
         style="fill:#fcc120;fill-opacity:1;fill-rule:evenodd;stroke:none"
         id="path38" /><path
         d="m 3618.0035,7579.437 c 207.21,-95.92 370.66,-229.76 466.91,-386.17 62.04,150.12 84.2,312.97 63.13,474.41 -183.2,17.41 -366.72,-13.75 -530.04,-88.24 z m -1996.16,-386.17 c 96.25,156.41 259.71,290.25 466.92,386.17 -163.32,74.49 -346.84,105.65 -530.05,88.24 -21.06,-161.46 1.1,-324.29 63.13,-474.41 z m 1798.48,-60.31 c 64.04,0 115.96,-108.69 115.96,-242.78 0,-134.08 -51.92,-242.77 -115.96,-242.77 -64.04,0 -115.96,108.69 -115.96,242.77 0,134.09 51.92,242.78 115.96,242.78 z m -1133.88,0 c 64.04,0 115.95,-108.69 115.95,-242.78 0,-134.08 -51.91,-242.77 -115.95,-242.77 -64.05,0 -115.96,108.69 -115.96,242.77 0,134.09 51.91,242.78 115.96,242.78 z m 1892.99,-308.87 c -764.87,-316.31 -1801.62,-470.27 -2602.66,-196.66 -33.25,76.23 -51.08,156.74 -51.08,240 0,69.75 12.57,137.52 36.17,202.52 -108.33,220.25 -149.86,465.08 -118.22,707.62 267.47,25.41 535.45,-26.86 767.98,-147.62 190.23,69.02 408.97,108.36 641.76,108.36 232.78,0 451.53,-39.34 641.76,-108.36 232.53,120.76 500.51,173.03 767.98,147.62 31.64,-242.54 -9.89,-487.37 -118.22,-707.62 23.6,-65 36.17,-132.77 36.17,-202.52 0,-14.53 -0.57,-28.98 -1.64,-43.34 v 0"
         style="fill:#fbd25f;fill-opacity:1;fill-rule:evenodd;stroke:none"
         id="path40" /><path
         d="m 4735.6035,7567.347 c 17.22,269.1 19.67,485.27 62.95,559.16 43.28,73.91 293.37,74.34 379.86,79.86 -86.49,5.51 -355.32,-6.54 -398.61,67.35 -43.29,73.93 -26.98,302.56 -44.2,571.66 -17.21,-269.1 -30.9,-490.26 -74.19,-564.16 -43.29,-73.91 -282.12,-69.34 -368.62,-74.85 86.5,-5.52 347.83,-8.47 391.12,-82.34 43.28,-73.91 34.48,-287.58 51.69,-556.68 v 0"
         style="fill:#ffffff;fill-opacity:1;fill-rule:evenodd;stroke:none"
         id="path42" /><path
         d="m 873.11321,6556.797 c 13.41,209.57 15.31,377.92 49.02,435.47 33.71,57.54 228.47029,57.89 295.83029,62.19 -67.36,4.3 -276.72029,-5.1 -310.43029,52.44 -33.71,57.58 -21.01,235.63 -34.42,445.2 -13.41,-209.57 -24.07,-381.8 -57.78,-439.36 -33.71,-57.54 -219.71,-53.98 -287.07,-58.28 67.36,-4.3 270.88,-6.6 304.59,-64.14 33.71,-57.54 26.85,-223.95 40.26,-433.52 v 0"
         style="fill:#ffffff;fill-opacity:1;fill-rule:evenodd;stroke:none"
         id="path44" /><path
         d="m 3696.2235,6073.797 c 13.41,209.59 15.31,377.93 49.02,435.47 33.71,57.55 228.46,57.89 295.82,62.18 -67.36,4.32 -276.71,-5.08 -310.42,52.46 -33.72,57.54 -21.01,235.61 -34.42,445.2 -13.41,-209.59 -24.07,-381.8 -57.78,-439.36 -33.71,-57.55 -219.71,-53.98 -287.07,-58.3 67.36,-4.29 270.88,-6.58 304.59,-64.12 33.71,-57.56 26.85,-223.94 40.26,-433.53 v 0"
         style="fill:#ffffff;fill-opacity:1;fill-rule:evenodd;stroke:none"
         id="path46" /><path
         d="m 4687.5135,4620.567 c 13.41,209.59 15.31,377.91 49.02,435.47 33.71,57.52 228.47,57.87 295.83,62.17 -67.36,4.3 -276.72,-5.1 -310.43,52.44 -33.71,57.56 -21.01,235.63 -34.42,445.2 -13.41,-209.57 -24.07,-381.8 -57.78,-439.34 -33.71,-57.56 -219.71,-54 -287.07,-58.3 67.36,-4.3 270.88,-6.58 304.59,-64.14 33.71,-57.52 26.85,-223.91 40.26,-433.5 v 0"
         style="fill:#ffffff;fill-opacity:1;fill-rule:evenodd;stroke:none"
         id="path48" /></g></g></svg>
